<svg id="Notification" xmlns="http://www.w3.org/2000/svg" width="24" height="24" viewBox="0 0 24 24">
  <g id="Notification-2" data-name="Notification" transform="translate(4 2)">
    <path id="Shape" d="M7.583,19.75A2.753,2.753,0,0,1,4.833,17V15.926l-3.406-.409A1.617,1.617,0,0,1,.292,12.988,7.378,7.378,0,0,0,1.6,9.234L1.82,5.7A4.222,4.222,0,0,1,6.026,1.75h.558V1a1,1,0,0,1,2,0v.75H9.14A4.221,4.221,0,0,1,13.346,5.7l.221,3.533a7.369,7.369,0,0,0,1.308,3.754,1.617,1.617,0,0,1-1.135,2.529l-3.407.409V17A2.753,2.753,0,0,1,7.583,19.75Zm-1.25-3.5V17a1.25,1.25,0,0,0,2.5,0v-.75Zm-.308-13A2.718,2.718,0,0,0,3.317,5.794L3.1,9.328a8.873,8.873,0,0,1-1.573,4.517.117.117,0,0,0,.082.183l3.738.448a18.831,18.831,0,0,0,2.241.134,18.814,18.814,0,0,0,2.24-.134l3.738-.448a.117.117,0,0,0,.094-.069.115.115,0,0,0-.011-.114A8.882,8.882,0,0,1,12.07,9.328l-.22-3.533A2.72,2.72,0,0,0,9.14,3.25Z" transform="translate(0.417)" fill="rgba(145,160,206,0.85)"/>
  </g>
</svg>
