<svg id="Layer_2" data-name="Layer 2" xmlns="http://www.w3.org/2000/svg" width="49.771" height="49.771" viewBox="0 0 49.771 49.771">
  <g id="Layer_1" data-name="Layer 1">
    <path id="Path_890" data-name="Path 890" d="M15.22,20.914l9.666-9.666,9.671,9.67,5.624-5.624L24.886,0,9.6,15.29l5.624,5.624M0,24.886,5.624,19.26l5.624,5.624L5.624,30.509Zm15.22,3.972,9.666,9.665,9.67-9.67,5.627,5.621,0,0L24.886,49.771,9.6,34.481l-.008-.008,5.632-5.617m23.3-3.969,5.624-5.624,5.624,5.624-5.624,5.624Z" fill="#f3ba2f"/>
    <path id="Path_891" data-name="Path 891" d="M974.6,968.9h0L968.9,963.19l-4.218,4.217h0l-.484.485-1,1-.008.008.008.008,5.7,5.7,5.707-5.707,0,0-.005,0" transform="translate(-944.014 -944.014)" fill="#f3ba2f"/>
  </g>
</svg>
