<svg id="Book" xmlns="http://www.w3.org/2000/svg" width="24" height="24" viewBox="0 0 24 24">
  <g id="Book-2" data-name="Book" transform="translate(3 3)">
    <path id="Path" d="M0,.75A.75.75,0,0,1,.75,0h7a.75.75,0,0,1,0,1.5h-7A.75.75,0,0,1,0,.75Z" transform="translate(5.25 4.25)" fill="rgba(145,160,206,0.85)"/>
    <path id="Path-2" data-name="Path" d="M.75,0a.75.75,0,0,0,0,1.5h5a.75.75,0,0,0,0-1.5Z" transform="translate(5.25 7.25)" fill="rgba(145,160,206,0.85)"/>
    <path id="Shape" d="M14.75,18.5h-11A3.755,3.755,0,0,1,0,14.75v-10A4.756,4.756,0,0,1,4.75,0h10A1.752,1.752,0,0,1,16.5,1.75v15A1.752,1.752,0,0,1,14.75,18.5Zm-11-6a2.25,2.25,0,0,0,0,4.5h11a.25.25,0,0,0,.25-.25V12.5Zm1-11A3.254,3.254,0,0,0,1.5,4.75v7A3.718,3.718,0,0,1,3.75,11H15V1.75a.25.25,0,0,0-.25-.249Z" transform="translate(0.75 0.25)" fill="rgba(145,160,206,0.85)"/>
  </g>
</svg>
