<svg xmlns="http://www.w3.org/2000/svg" width="53.702" height="53.708" viewBox="0 0 53.702 53.708">
  <g id="Layer_x0020_1" transform="translate(0 -0.001)">
    <g id="_1421344023328" transform="translate(0 0.001)">
      <path id="Path_72" data-name="Path 72" d="M52.9,33.351A26.845,26.845,0,1,1,33.343.8,26.847,26.847,0,0,1,52.9,33.351h0Z" transform="translate(0 -0.001)" fill="#f7931a"/>
      <path id="Path_73" data-name="Path 73" d="M1021.1,726.423c.535-3.574-2.186-5.495-5.907-6.776l1.207-4.841-2.947-.734-1.175,4.713c-.775-.193-1.57-.375-2.361-.556l1.183-4.745-2.945-.734-1.208,4.839c-.641-.146-1.271-.29-1.881-.442l0-.015L1001,716.117l-.784,3.148s2.186.5,2.14.532a1.569,1.569,0,0,1,1.373,1.714l-1.375,5.515a2.4,2.4,0,0,1,.306.1l-.311-.077-1.927,7.726a1.072,1.072,0,0,1-1.35.7c.03.043-2.142-.535-2.142-.535l-1.463,3.373,3.835.956c.713.179,1.412.366,2.1.542l-1.219,4.9,2.943.734,1.208-4.844c.8.218,1.584.42,2.349.609l-1.2,4.822,2.947.734,1.219-4.887c5.025.951,8.8.568,10.393-3.977,1.282-3.659-.064-5.77-2.707-7.146a4.7,4.7,0,0,0,3.762-4.326h0Zm-6.733,9.441c-.911,3.659-7.072,1.681-9.069,1.185l1.618-6.487c2,.5,8.4,1.485,7.451,5.3Zm.911-9.494c-.831,3.328-5.959,1.637-7.622,1.223l1.467-5.883c1.664.414,7.021,1.189,6.155,4.66Z" transform="translate(-982.404 -703.395)" fill="#fff"/>
    </g>
  </g>
</svg>
