<svg id="Fire" xmlns="http://www.w3.org/2000/svg" width="24" height="24" viewBox="0 0 24 24">
  <g id="Fire-2" data-name="Fire" transform="translate(4 1)">
    <path id="Shape" d="M7.25,20.323A7.251,7.251,0,0,1,3.274,7.009l.067-.068a.748.748,0,0,1,.113-.094,7.587,7.587,0,0,0,1.906-1.62A3.377,3.377,0,0,0,6,3.073a5.726,5.726,0,0,0-.378-2.055.75.75,0,0,1,.868-1,6.209,6.209,0,0,1,4.016,3.145,8.717,8.717,0,0,1,.988,5.177,7.066,7.066,0,0,1-1.185,3.311l-.005.008-.006.009a3.834,3.834,0,0,0,.384-.218A7.684,7.684,0,0,0,12.268,9.9l.006-.007.212-.247a.75.75,0,0,1,.569-.26.758.758,0,0,1,.09.005.748.748,0,0,1,.578.406,7.177,7.177,0,0,1,.778,3.27A7.258,7.258,0,0,1,7.25,20.323ZM7.421,2A7.418,7.418,0,0,1,7.5,3.073a4.853,4.853,0,0,1-.936,3.053A8.77,8.77,0,0,1,4.355,8.05l-.073.073a.743.743,0,0,1-.128.1A5.745,5.745,0,1,0,12.8,11.571a6.878,6.878,0,0,1-1.3,1.137,6.63,6.63,0,0,1-3.749.941.75.75,0,0,1-.362-1.408,4.9,4.9,0,0,0,1.7-1.456,5.605,5.605,0,0,0,.921-2.626,7.115,7.115,0,0,0-.486-3.6A5.376,5.376,0,0,0,7.421,2Z" transform="translate(0.75 0.25)" fill="rgba(145,160,206,0.85)"/>
  </g>
</svg>
