<svg id="Pulse" xmlns="http://www.w3.org/2000/svg" width="24" height="24" viewBox="0 0 24 24">
  <g id="Pulse-2" data-name="Pulse" transform="translate(1 4)">
    <path id="Shape" d="M8.6,15.5H8.556a.745.745,0,0,1-.7-.625L6.019,3.909,4.706,7.98a.748.748,0,0,1-.714.519H.75A.75.75,0,0,1,.75,7h2.7L5.536.52A.748.748,0,0,1,6.25,0L6.3,0a.747.747,0,0,1,.685.624l1.8,10.733,2.238-7.815a.75.75,0,0,1,1.443,0L13.99,8.858l.871-1.487A.752.752,0,0,1,15.508,7h1.6a2.75,2.75,0,1,1,0,1.5H15.937l-1.54,2.63a.75.75,0,0,1-1.368-.174L11.749,6.476l-2.429,8.48A.752.752,0,0,1,8.6,15.5Zm11.15-9A1.25,1.25,0,1,0,21,7.75,1.251,1.251,0,0,0,19.75,6.5Z" transform="translate(0.25 0.25)" fill="rgba(145,160,206,0.85)"/>
  </g>
</svg>
