<svg id="Settings-alt" xmlns="http://www.w3.org/2000/svg" width="24" height="24" viewBox="0 0 24 24">
  <g id="Settings-alt-2" data-name="Settings-alt" transform="translate(1 1)">
    <path id="Shape" d="M10.53,21.061a1.24,1.24,0,0,1-.9-.381l-2.319-2.4H4.03a1.252,1.252,0,0,1-1.25-1.25V13.748l-2.4-2.319a1.249,1.249,0,0,1,0-1.8l2.4-2.319V4.03A1.252,1.252,0,0,1,4.03,2.78H7.313L9.632.382a1.249,1.249,0,0,1,1.8,0l2.319,2.4h3.282a1.252,1.252,0,0,1,1.25,1.25V7.313l2.4,2.319a1.249,1.249,0,0,1,0,1.8l-2.4,2.319v3.282a1.252,1.252,0,0,1-1.25,1.25H13.748l-2.319,2.4A1.24,1.24,0,0,1,10.53,21.061ZM4.28,4.28V7.419a1.257,1.257,0,0,1-.382.9L1.61,10.531,3.9,12.743a1.257,1.257,0,0,1,.382.9V16.78H7.419a1.257,1.257,0,0,1,.9.382l2.213,2.29,2.212-2.29a1.257,1.257,0,0,1,.9-.382h3.138V13.642a1.257,1.257,0,0,1,.382-.9l2.29-2.212-2.29-2.213a1.257,1.257,0,0,1-.382-.9V4.28H13.642a1.257,1.257,0,0,1-.9-.382L10.531,1.61,8.318,3.9a1.257,1.257,0,0,1-.9.382H4.28Z" transform="translate(0.469 0.469)" fill="rgba(145,160,206,0.85)"/>
    <path id="Shape-2" data-name="Shape" d="M4.75,9.5A4.75,4.75,0,1,1,9.5,4.75,4.756,4.756,0,0,1,4.75,9.5Zm0-8A3.25,3.25,0,1,0,8,4.75,3.254,3.254,0,0,0,4.75,1.5Z" transform="translate(6.25 6.25)" fill="rgba(145,160,206,0.85)"/>
  </g>
</svg>
