<svg xmlns="http://www.w3.org/2000/svg" width="52.682" height="45.83" viewBox="0 0 52.682 45.83">
  <g id="tether-usdt-logo" transform="translate(-0.005 0)">
    <path id="Path_882" data-name="Path 882" d="M9.651.225.045,20.4a.391.391,0,0,0,.084.456l25.944,24.86a.4.4,0,0,0,.548,0L52.564,20.86a.391.391,0,0,0,.084-.456L43.042.226A.388.388,0,0,0,42.688,0H10.008a.388.388,0,0,0-.357.225Z" transform="translate(0 0)" fill="#50af95" fill-rule="evenodd"/>
    <path id="Path_883" data-name="Path 883" d="M83.834,56.461h0c-.186.014-1.149.071-3.3.071-1.707,0-2.92-.051-3.345-.071h0c-6.6-.29-11.523-1.439-11.523-2.814s4.925-2.522,11.523-2.817v4.487c.431.031,1.667.1,3.374.1,2.049,0,3.075-.085,3.259-.1V50.833c6.584.293,11.5,1.442,11.5,2.814s-4.912,2.521-11.5,2.812h0Zm0-6.092V46.353h9.189V40.23H68.006v6.123h9.187v4.014c-7.467.343-13.083,1.822-13.083,3.595s5.616,3.25,13.083,3.595V70.424h6.64V57.552c7.45-.343,13.056-1.821,13.056-3.592s-5.6-3.249-13.056-3.593h0Zm0,0Z" transform="translate(-54.155 -33.986)" fill="#fff" fill-rule="evenodd"/>
  </g>
</svg>
