<svg id="Wallet" xmlns="http://www.w3.org/2000/svg" width="24" height="24" viewBox="0 0 24 24">
  <g id="Wallet-2" data-name="Wallet" transform="translate(2 3)">
    <path id="Path" d="M0,1.5A1.5,1.5,0,1,1,1.5,3,1.5,1.5,0,0,1,0,1.5Z" transform="translate(13.5 7.5)" fill="rgba(145,160,206,0.85)"/>
    <path id="Shape" d="M9.225,16.954h0a44.581,44.581,0,0,1-5.251-.312l-.432-.052A3.68,3.68,0,0,1,.329,13.423a37.373,37.373,0,0,1,0-9.891A3.68,3.68,0,0,1,3.542.364L3.973.312a44.364,44.364,0,0,1,9.9-.068l.652.068a4.711,4.711,0,0,1,3.84,2.839,2.763,2.763,0,0,1,1.963,2.324,25.9,25.9,0,0,1,0,6A2.763,2.763,0,0,1,18.366,13.8a4.712,4.712,0,0,1-3.84,2.839l-.652.068A44.611,44.611,0,0,1,9.225,16.954ZM9.232,1.5a43.065,43.065,0,0,0-5.081.3l-.431.051a2.18,2.18,0,0,0-1.9,1.877,35.9,35.9,0,0,0,0,9.493A2.179,2.179,0,0,0,3.72,15.1l.431.052a43.145,43.145,0,0,0,5.078.3,43.04,43.04,0,0,0,4.488-.235l.652-.068a3.2,3.2,0,0,0,2.125-1.131c-.528.031-1.056.046-1.568.046a26.727,26.727,0,0,1-2.958-.164,2.79,2.79,0,0,1-2.446-2.422,25.9,25.9,0,0,1,0-6,2.79,2.79,0,0,1,2.446-2.422,26.729,26.729,0,0,1,2.958-.163c.521,0,1.049.015,1.568.045A3.193,3.193,0,0,0,14.369,1.8l-.652-.069A43.024,43.024,0,0,0,9.232,1.5Zm5.693,2.89a25.133,25.133,0,0,0-2.791.155,1.275,1.275,0,0,0-1.122,1.105,24.29,24.29,0,0,0,0,5.656,1.273,1.273,0,0,0,1.122,1.105,25.131,25.131,0,0,0,2.791.155c.762,0,1.528-.034,2.278-.1a.047.047,0,0,0,0-.006v-.006l.006-.039.2.032.308-.033A1.275,1.275,0,0,0,18.84,11.3a24.388,24.388,0,0,0,0-5.656,1.277,1.277,0,0,0-1.123-1.105l-.308-.032-.2.031L17.2,4.5a.041.041,0,0,1,0-.005.048.048,0,0,0,0-.006C16.455,4.424,15.688,4.389,14.925,4.389Z" transform="translate(0.075 0.523)" fill="rgba(145,160,206,0.85)"/>
  </g>
</svg>
